<svg width="16" height="16" viewBox="0 0 16 16" fill="none" xmlns="http://www.w3.org/2000/svg">
<path fill-rule="evenodd" clip-rule="evenodd" d="M1.33334 5.3335C1.33334 4.27263 1.75477 3.25521 2.50492 2.50507C3.25506 1.75492 4.27248 1.3335 5.33334 1.3335H10.6667C11.7275 1.3335 12.745 1.75492 13.4951 2.50507C14.2452 3.25521 14.6667 4.27263 14.6667 5.3335V10.6668C14.6667 11.7277 14.2452 12.7451 13.4951 13.4953C12.745 14.2454 11.7275 14.6668 10.6667 14.6668H5.33334C4.27248 14.6668 3.25506 14.2454 2.50492 13.4953C1.75477 12.7451 1.33334 11.7277 1.33334 10.6668V5.3335ZM2.66668 6.66683V10.6668C2.66668 11.3741 2.94763 12.0523 3.44773 12.5524C3.94782 13.0525 4.6261 13.3335 5.33334 13.3335H10.6667C11.3739 13.3335 12.0522 13.0525 12.5523 12.5524C13.0524 12.0523 13.3333 11.3741 13.3333 10.6668V6.66683C13.3333 5.95959 13.0524 5.28131 12.5523 4.78121C12.0522 4.28111 11.3739 4.00016 10.6667 4.00016H5.33334C4.6261 4.00016 3.94782 4.28111 3.44773 4.78121C2.94763 5.28131 2.66668 5.95959 2.66668 6.66683Z" fill="#8E8F90" />
<path d="M10.6667 6.3335H5.33335C4.96516 6.3335 4.66669 6.63197 4.66669 7.00016C4.66669 7.36835 4.96516 7.66683 5.33335 7.66683H10.6667C11.0349 7.66683 11.3334 7.36835 11.3334 7.00016C11.3334 6.63197 11.0349 6.3335 10.6667 6.3335Z" fill="#8E8F90"/>
<path d="M8.66669 9.66699H5.33335C4.96516 9.66699 4.66669 9.96547 4.66669 10.3337C4.66669 10.7018 4.96516 11.0003 5.33335 11.0003H8.66669C9.03488 11.0003 9.33335 10.7018 9.33335 10.3337C9.33335 9.96547 9.03488 9.66699 8.66669 9.66699Z" fill="#8E8F90" />
</svg>
