<svg width="16" height="16" viewBox="0 0 16 16" fill="none" xmlns="http://www.w3.org/2000/svg">
<path fill-rule="evenodd" clip-rule="evenodd" d="M14.6667 10.667C14.6667 11.3742 14.3857 12.0525 13.8856 12.5526C13.3855 13.0527 12.7073 13.3337 12 13.3337H4.00001C3.29277 13.3337 2.61449 13.0527 2.11439 12.5526C1.6143 12.0525 1.33334 11.3742 1.33334 10.667V5.33366C1.33334 4.62641 1.6143 3.94814 2.11439 3.44804C2.61449 2.94794 3.29277 2.66699 4.00001 2.66699H12C12.7073 2.66699 13.3855 2.94794 13.8856 3.44804C14.3857 3.94814 14.6667 4.62641 14.6667 5.33366V10.667ZM12 4.00033H8.00001V12.0003H12C12.3536 12.0003 12.6928 11.8598 12.9428 11.6098C13.1929 11.3598 13.3333 11.0206 13.3333 10.667V5.33366C13.3333 4.98004 13.1929 4.6409 12.9428 4.39085C12.6928 4.1408 12.3536 4.00033 12 4.00033ZM4.00001 4.00033H6.66668V12.0003H4.00001C3.64639 12.0003 3.30725 11.8598 3.0572 11.6098C2.80715 11.3598 2.66668 11.0206 2.66668 10.667V5.33366C2.66668 4.98004 2.80715 4.6409 3.0572 4.39085C3.30725 4.1408 3.64639 4.00033 4.00001 4.00033Z" fill="#FAFAFA"/>
<path d="M4.66667 8.66732C5.03486 8.66732 5.33333 8.36884 5.33333 8.00065C5.33333 7.63246 5.03486 7.33398 4.66667 7.33398C4.29848 7.33398 4 7.63246 4 8.00065C4 8.36884 4.29848 8.66732 4.66667 8.66732Z" fill="#FAFAFA"/>
<path d="M4.66667 6.66732C5.03486 6.66732 5.33333 6.36884 5.33333 6.00065C5.33333 5.63246 5.03486 5.33398 4.66667 5.33398C4.29848 5.33398 4 5.63246 4 6.00065C4 6.36884 4.29848 6.66732 4.66667 6.66732Z" fill="#FAFAFA"/>
</svg>