<svg width="16" height="16" viewBox="0 0 16 16" fill="none" xmlns="http://www.w3.org/2000/svg">
<path fill-rule="evenodd" clip-rule="evenodd" d="M1.33334 5.33301C1.33334 4.27214 1.75477 3.25473 2.50492 2.50458C3.25506 1.75444 4.27248 1.33301 5.33334 1.33301H10.6667C11.7275 1.33301 12.745 1.75444 13.4951 2.50458C14.2453 3.25473 14.6667 4.27214 14.6667 5.33301V10.6663C14.6667 11.7272 14.2453 12.7446 13.4951 13.4948C12.745 14.2449 11.7275 14.6663 10.6667 14.6663H5.33334C4.27248 14.6663 3.25506 14.2449 2.50492 13.4948C1.75477 12.7446 1.33334 11.7272 1.33334 10.6663V5.33301ZM2.66668 6.66634V10.6663C2.66668 11.3736 2.94763 12.0519 3.44773 12.552C3.94782 13.0521 4.6261 13.333 5.33334 13.333H10.6667C11.3739 13.333 12.0522 13.0521 12.5523 12.552C13.0524 12.0519 13.3333 11.3736 13.3333 10.6663V6.66634C13.3333 5.9591 13.0524 5.28082 12.5523 4.78072C12.0522 4.28063 11.3739 3.99967 10.6667 3.99967H5.33334C4.6261 3.99967 3.94782 4.28063 3.44773 4.78072C2.94763 5.28082 2.66668 5.9591 2.66668 6.66634Z" fill="#3B82F6"/>
<path d="M6.862 6.52799C6.97873 6.41141 7.13453 6.34224 7.29929 6.33387C7.46405 6.32549 7.62606 6.37851 7.754 6.48266L7.80467 6.52799L9.47134 8.19466L9.51667 8.24532C9.61336 8.3642 9.66615 8.51276 9.66615 8.66599C9.66615 8.81922 9.61336 8.96778 9.51667 9.08666L9.47134 9.13732L7.80467 10.804C7.74317 10.8677 7.66961 10.9185 7.58827 10.9534C7.50694 10.9883 7.41946 11.0067 7.33094 11.0075C7.24242 11.0083 7.15463 10.9914 7.0727 10.9579C6.99077 10.9244 6.91634 10.8748 6.85374 10.8123C6.79115 10.7497 6.74164 10.6752 6.70812 10.5933C6.6746 10.5114 6.65773 10.4236 6.6585 10.3351C6.65927 10.2465 6.67766 10.1591 6.7126 10.0777C6.74754 9.99639 6.79833 9.92282 6.862 9.86132L8.05734 8.66599L6.862 7.47066L6.81667 7.41999C6.71252 7.29205 6.65951 7.13004 6.66788 6.96528C6.67625 6.80052 6.74542 6.64471 6.862 6.52799Z" fill="#3B82F6"/>
</svg>
