<svg width="16" height="16" viewBox="0 0 16 16" fill="none" xmlns="http://www.w3.org/2000/svg">
<path fill-rule="evenodd" clip-rule="evenodd" d="M1.33334 5.33301C1.33334 4.27214 1.75477 3.25473 2.50492 2.50458C3.25506 1.75444 4.27248 1.33301 5.33334 1.33301H10.6667C11.7275 1.33301 12.745 1.75444 13.4951 2.50458C14.2453 3.25473 14.6667 4.27214 14.6667 5.33301V10.6663C14.6667 11.7272 14.2453 12.7446 13.4951 13.4948C12.745 14.2449 11.7275 14.6663 10.6667 14.6663H5.33334C4.27248 14.6663 3.25506 14.2449 2.50492 13.4948C1.75477 12.7446 1.33334 11.7272 1.33334 10.6663V5.33301ZM2.66668 6.66634V10.6663C2.66668 11.3736 2.94763 12.0519 3.44773 12.552C3.94782 13.0521 4.6261 13.333 5.33334 13.333H10.6667C11.3739 13.333 12.0522 13.0521 12.5523 12.552C13.0524 12.0519 13.3333 11.3736 13.3333 10.6663V6.66634C13.3333 5.9591 13.0524 5.28082 12.5523 4.78072C12.0522 4.28063 11.3739 3.99967 10.6667 3.99967H5.33334C4.6261 3.99967 3.94782 4.28063 3.44773 4.78072C2.94763 5.28082 2.66668 5.9591 2.66668 6.66634Z" fill="#F59E0B"/>
<path d="M6.33335 6H5.66669C5.1144 6 4.66669 6.44772 4.66669 7V7.66667C4.66669 8.21895 5.1144 8.66667 5.66669 8.66667H6.33335C6.88564 8.66667 7.33335 8.21895 7.33335 7.66667V7C7.33335 6.44772 6.88564 6 6.33335 6Z" fill="#F59E0B"/>
</svg>
