<svg width="16" height="16" viewBox="0 0 16 16" fill="none" xmlns="http://www.w3.org/2000/svg">
<path d="M5.66667 8C5.66667 8.39782 5.50864 8.77936 5.22733 9.06066C4.94603 9.34196 4.5645 9.5 4.16667 9.5C3.76885 9.5 3.38732 9.34196 3.10601 9.06066C2.82471 8.77936 2.66667 8.39782 2.66667 8C2.66667 7.60218 2.82471 7.22064 3.10601 6.93934C3.38732 6.65804 3.76885 6.5 4.16667 6.5C4.5645 6.5 4.94603 6.65804 5.22733 6.93934C5.50864 7.22064 5.66667 7.60218 5.66667 8ZM9.50001 8C9.50001 8.39782 9.34197 8.77936 9.06067 9.06066C8.77936 9.34196 8.39783 9.5 8.00001 9.5C7.60218 9.5 7.22065 9.34196 6.93935 9.06066C6.65804 8.77936 6.50001 8.39782 6.50001 8C6.50001 7.60218 6.65804 7.22064 6.93935 6.93934C7.22065 6.65804 7.60218 6.5 8.00001 6.5C8.39783 6.5 8.77936 6.65804 9.06067 6.93934C9.34197 7.22064 9.50001 7.60218 9.50001 8ZM13.3333 8C13.3333 8.39782 13.1753 8.77936 12.894 9.06066C12.6127 9.34196 12.2312 9.5 11.8333 9.5C11.4355 9.5 11.054 9.34196 10.7727 9.06066C10.4914 8.77936 10.3333 8.39782 10.3333 8C10.3333 7.60218 10.4914 7.22064 10.7727 6.93934C11.054 6.65804 11.4355 6.5 11.8333 6.5C12.2312 6.5 12.6127 6.65804 12.894 6.93934C13.1753 7.22064 13.3333 7.60218 13.3333 8Z" fill="white" fill-opacity="0.5"/>
</svg>
