<svg width="16" height="16" viewBox="0 0 16 16" fill="none" xmlns="http://www.w3.org/2000/svg">
<path fill-rule="evenodd" clip-rule="evenodd" d="M8.00001 13.333C9.4145 13.333 10.7711 12.7711 11.7712 11.7709C12.7714 10.7707 13.3333 9.41416 13.3333 7.99967C13.3333 6.58519 12.7714 5.22863 11.7712 4.22844C10.7711 3.22824 9.4145 2.66634 8.00001 2.66634C6.58552 2.66634 5.22897 3.22824 4.22877 4.22844C3.22858 5.22863 2.66668 6.58519 2.66668 7.99967C2.66668 9.41416 3.22858 10.7707 4.22877 11.7709C5.22897 12.7711 6.58552 13.333 8.00001 13.333ZM8.00001 14.6663C11.682 14.6663 14.6667 11.6817 14.6667 7.99967C14.6667 4.31767 11.682 1.33301 8.00001 1.33301C4.31801 1.33301 1.33334 4.31767 1.33334 7.99967C1.33334 11.6817 4.31801 14.6663 8.00001 14.6663Z" fill="#EF4444"/>
<path d="M7.33334 5.33268C7.33334 5.15587 7.40358 4.9863 7.52861 4.86128C7.65363 4.73625 7.8232 4.66602 8.00001 4.66602C8.17682 4.66602 8.34639 4.73625 8.47141 4.86128C8.59644 4.9863 8.66668 5.15587 8.66668 5.33268V7.72335L10.138 9.19468L10.1833 9.24535C10.2864 9.37342 10.3385 9.53506 10.3296 9.69921C10.3208 9.86336 10.2516 10.0184 10.1353 10.1347C10.0191 10.2509 9.86402 10.3201 9.69987 10.329C9.53572 10.3378 9.37409 10.2857 9.24601 10.1827L9.19534 10.1373L7.52868 8.47068C7.40364 8.34569 7.33338 8.17615 7.33334 7.99935V5.33268Z" fill="#EF4444"/>
</svg>
