<svg width="16" height="16" viewBox="0 0 16 16" fill="none" xmlns="http://www.w3.org/2000/svg">
<path d="M8.805 3.47597C8.805 3.26167 8.71987 3.05616 8.56834 2.90463C8.41681 2.7531 8.2113 2.66797 7.997 2.66797C7.78271 2.66797 7.57719 2.7531 7.42566 2.90463C7.27413 3.05616 7.189 3.26167 7.189 3.47597V7.19297H3.472C3.25771 7.19297 3.05219 7.2781 2.90066 7.42963C2.74913 7.58116 2.664 7.78667 2.664 8.00097C2.664 8.21526 2.74913 8.42078 2.90066 8.57231C3.05219 8.72384 3.25771 8.80897 3.472 8.80897H7.19V12.527C7.19 12.7413 7.27513 12.9468 7.42666 13.0983C7.57819 13.2498 7.78371 13.335 7.998 13.335C8.2123 13.335 8.41781 13.2498 8.56934 13.0983C8.72087 12.9468 8.806 12.7413 8.806 12.527V8.80897H12.524C12.6301 8.80897 12.7352 8.78807 12.8332 8.74746C12.9312 8.70686 13.0203 8.64734 13.0953 8.57231C13.1704 8.49728 13.2299 8.40821 13.2705 8.31018C13.3111 8.21215 13.332 8.10708 13.332 8.00097C13.332 7.89486 13.3111 7.78979 13.2705 7.69176C13.2299 7.59373 13.1704 7.50466 13.0953 7.42963C13.0203 7.3546 12.9312 7.29508 12.8332 7.25447C12.7352 7.21387 12.6301 7.19297 12.524 7.19297H8.805V3.47597Z" fill="white" fill-opacity="0.5"/>
</svg>
