<svg width="16" height="16" viewBox="0 0 16 16" fill="none" xmlns="http://www.w3.org/2000/svg">
<path fill-rule="evenodd" clip-rule="evenodd" d="M1.33334 5.3335C1.33334 4.27263 1.75477 3.25521 2.50492 2.50507C3.25506 1.75492 4.27248 1.3335 5.33334 1.3335H10.6667C11.7275 1.3335 12.745 1.75492 13.4951 2.50507C14.2452 3.25521 14.6667 4.27263 14.6667 5.3335V10.6668C14.6667 11.7277 14.2452 12.7451 13.4951 13.4953C12.745 14.2454 11.7275 14.6668 10.6667 14.6668H5.33334C4.27248 14.6668 3.25506 14.2454 2.50492 13.4953C1.75477 12.7451 1.33334 11.7277 1.33334 10.6668V5.3335ZM2.66668 6.66683V10.6668C2.66668 11.3741 2.94763 12.0523 3.44773 12.5524C3.94782 13.0525 4.6261 13.3335 5.33334 13.3335H10.6667C11.3739 13.3335 12.0522 13.0525 12.5523 12.5524C13.0524 12.0523 13.3333 11.3741 13.3333 10.6668V6.66683C13.3333 5.95959 13.0524 5.28131 12.5523 4.78121C12.0522 4.28111 11.3739 4.00016 10.6667 4.00016H5.33334C4.6261 4.00016 3.94782 4.28111 3.44773 4.78121C2.94763 5.28131 2.66668 5.95959 2.66668 6.66683Z" fill="#8E8F90"/>
<path d="M7.47068 10.5914C7.57068 10.6434 7.68268 10.6694 7.79601 10.6667C7.90918 10.6635 8.01968 10.6315 8.11707 10.5738C8.21446 10.5161 8.29555 10.4345 8.35268 10.3367L8.35401 10.3354L8.35801 10.3301L8.37268 10.3034C8.45934 10.1594 8.54779 10.0161 8.63801 9.87339C8.8069 9.60139 8.98957 9.33894 9.18601 9.08606C9.42912 8.79717 9.68912 8.52472 9.96601 8.26872C10.1091 8.13183 10.2551 7.99761 10.404 7.86606C10.4852 7.80026 10.5539 7.7203 10.6067 7.63006C10.6692 7.51086 10.6942 7.37558 10.6785 7.24191C10.6628 7.10825 10.6071 6.98245 10.5187 6.88099C10.4303 6.77953 10.3133 6.70714 10.183 6.67331C10.0527 6.63948 9.91529 6.64578 9.78868 6.69139C9.68401 6.72939 9.60201 6.79672 9.52001 6.86739C9.36001 7.00961 9.20268 7.1545 9.04801 7.30206C8.76801 7.56672 8.40801 7.92606 8.14801 8.24872C8.00134 8.43361 7.86268 8.62472 7.73201 8.82206C7.61179 8.67452 7.48266 8.53449 7.34534 8.40272C7.14533 8.2213 6.93329 8.05358 6.71068 7.90072C6.60554 7.82563 6.49885 7.75272 6.39068 7.68206L6.36401 7.66406L6.36201 7.66272C6.28847 7.61518 6.20629 7.5826 6.12015 7.56682C6.03402 7.55104 5.94562 7.55238 5.86 7.57077C5.68709 7.6079 5.53602 7.7122 5.44001 7.86072C5.344 8.00924 5.31093 8.18982 5.34806 8.36273C5.38519 8.53564 5.48949 8.68671 5.63801 8.78272L7.22201 10.3681C7.28468 10.4614 7.37001 10.5387 7.47068 10.5914Z" fill="#8E8F90"/>
</svg>
